<svg id="visual" viewBox="0 0 900 600" width="900" height="600" xmlns="http://www.w3.org/2000/svg" xmlns:xlink="http://www.w3.org/1999/xlink" version="1.1"><rect x="0" y="0" width="900" height="600" fill="#001220"></rect><path d="M0 364L21.5 361.8C43 359.7 86 355.3 128.8 361.7C171.7 368 214.3 385 257.2 400.5C300 416 343 430 385.8 436.7C428.7 443.3 471.3 442.7 514.2 432.2C557 421.7 600 401.3 642.8 389.3C685.7 377.3 728.3 373.7 771.2 369.2C814 364.7 857 359.3 878.5 356.7L900 354L900 601L878.5 601C857 601 814 601 771.2 601C728.3 601 685.7 601 642.8 601C600 601 557 601 514.2 601C471.3 601 428.7 601 385.8 601C343 601 300 601 257.2 601C214.3 601 171.7 601 128.8 601C86 601 43 601 21.5 601L0 601Z" fill="#fa7268"></path><path d="M0 455L21.5 458.2C43 461.3 86 467.7 128.8 459.7C171.7 451.7 214.3 429.3 257.2 424.7C300 420 343 433 385.8 439.2C428.7 445.3 471.3 444.7 514.2 444.8C557 445 600 446 642.8 441.7C685.7 437.3 728.3 427.7 771.2 420.8C814 414 857 410 878.5 408L900 406L900 601L878.5 601C857 601 814 601 771.2 601C728.3 601 685.7 601 642.8 601C600 601 557 601 514.2 601C471.3 601 428.7 601 385.8 601C343 601 300 601 257.2 601C214.3 601 171.7 601 128.8 601C86 601 43 601 21.5 601L0 601Z" fill="#ef5f67"></path><path d="M0 508L21.5 504.3C43 500.7 86 493.3 128.8 492.8C171.7 492.3 214.3 498.7 257.2 493.7C300 488.7 343 472.3 385.8 462.2C428.7 452 471.3 448 514.2 448.2C557 448.3 600 452.7 642.8 461.7C685.7 470.7 728.3 484.3 771.2 489.8C814 495.3 857 492.7 878.5 491.3L900 490L900 601L878.5 601C857 601 814 601 771.2 601C728.3 601 685.7 601 642.8 601C600 601 557 601 514.2 601C471.3 601 428.7 601 385.8 601C343 601 300 601 257.2 601C214.3 601 171.7 601 128.8 601C86 601 43 601 21.5 601L0 601Z" fill="#e34c67"></path><path d="M0 496L21.5 502.8C43 509.7 86 523.3 128.8 528.2C171.7 533 214.3 529 257.2 526.5C300 524 343 523 385.8 518.5C428.7 514 471.3 506 514.2 501.8C557 497.7 600 497.3 642.8 500.8C685.7 504.3 728.3 511.7 771.2 511.2C814 510.7 857 502.3 878.5 498.2L900 494L900 601L878.5 601C857 601 814 601 771.2 601C728.3 601 685.7 601 642.8 601C600 601 557 601 514.2 601C471.3 601 428.7 601 385.8 601C343 601 300 601 257.2 601C214.3 601 171.7 601 128.8 601C86 601 43 601 21.5 601L0 601Z" fill="#d53867"></path><path d="M0 549L21.5 545.2C43 541.3 86 533.7 128.8 532C171.7 530.3 214.3 534.7 257.2 534.8C300 535 343 531 385.8 531.3C428.7 531.7 471.3 536.3 514.2 544.2C557 552 600 563 642.8 564.2C685.7 565.3 728.3 556.7 771.2 554C814 551.3 857 554.7 878.5 556.3L900 558L900 601L878.5 601C857 601 814 601 771.2 601C728.3 601 685.7 601 642.8 601C600 601 557 601 514.2 601C471.3 601 428.7 601 385.8 601C343 601 300 601 257.2 601C214.3 601 171.7 601 128.8 601C86 601 43 601 21.5 601L0 601Z" fill="#c62368"></path></svg>